<svg width="287" height="88" viewBox="0 0 287 88" fill="none" xmlns="http://www.w3.org/2000/svg">
<path fill-rule="evenodd" clip-rule="evenodd" d="M178.048 68.2213C161.426 80.4735 137.333 87.0105 116.589 87.0105C87.5021 87.0105 61.317 76.2523 41.5067 58.3599C39.9506 56.9526 41.3451 55.0352 43.2127 56.1311C64.5917 68.57 91.0259 76.0532 118.332 76.0532C136.747 76.0532 157.006 72.2431 175.633 64.3366C178.447 63.1412 180.8 66.1793 178.048 68.2213Z" fill="#606060"/>
<path fill-rule="evenodd" clip-rule="evenodd" d="M165.927 10.2198V3.72029C165.927 2.73659 166.674 2.07668 167.571 2.07668H196.67C197.604 2.07668 198.351 2.74889 198.351 3.72029V9.28587C198.338 10.2198 197.554 11.4401 196.159 13.37L181.081 34.8983C186.684 34.7616 192.598 35.5957 197.678 38.4596C198.824 39.1069 199.135 40.0534 199.222 40.9871V47.9225C199.222 48.8688 198.176 49.9769 197.081 49.4042C188.128 44.7102 176.237 44.1997 166.338 49.454C165.33 50.0021 164.271 48.9062 164.271 47.96V41.3732C164.271 40.3149 164.284 38.5094 165.342 36.9032L182.811 11.8511H167.608C166.674 11.8511 165.927 11.1912 165.927 10.2198ZM59.7798 50.7738H50.9267C50.08 50.7118 49.4078 50.0767 49.3454 49.2672V3.83242C49.3454 2.92337 50.1049 2.20111 51.0511 2.20111H59.3064C60.1657 2.2383 60.8505 2.89849 60.9128 3.72001V9.65973H61.0747C63.2286 3.91967 67.2753 1.24286 72.729 1.24286C78.2697 1.24286 81.7315 3.91967 84.2218 9.65973C86.3634 3.91967 91.2319 1.24286 96.449 1.24286C100.159 1.24286 104.219 2.77434 106.696 6.21089C109.498 10.0333 108.925 15.5866 108.925 20.4551L108.913 49.1305C108.913 50.0396 108.153 50.7741 107.207 50.7741H98.3664C97.4825 50.712 96.7726 50.0024 96.7726 49.1305V25.0495C96.7726 23.1319 96.9471 18.3503 96.5237 16.5328C95.8638 13.4821 93.8841 12.6229 91.3188 12.6229C89.1772 12.6229 86.936 14.0548 86.027 16.346C85.1182 18.6373 85.2055 22.472 85.2055 25.0495V49.1302C85.2055 50.0393 84.4457 50.7738 83.4995 50.7738H74.659C73.7625 50.7118 73.0652 50.0021 73.0652 49.1302L73.0529 25.0495C73.0529 19.9817 73.887 12.5236 67.5991 12.5236C61.2366 12.5236 61.4855 19.7949 61.4855 25.0495V49.1302C61.4855 50.0393 60.726 50.7738 59.7798 50.7738ZM223.403 1.24257C236.539 1.24257 243.649 12.5233 243.649 26.8673C243.649 40.7256 235.792 51.7203 223.403 51.7203C210.503 51.7203 203.481 40.4393 203.481 26.3816C203.481 12.237 210.59 1.24257 223.403 1.24257ZM223.478 10.5187C216.953 10.5187 216.542 19.409 216.542 24.9497C216.542 30.5033 216.455 42.3567 223.403 42.3567C230.264 42.3567 230.587 32.7942 230.587 26.9669C230.587 23.1319 230.425 18.5497 229.267 14.9141C228.271 11.7513 226.291 10.5187 223.478 10.5187ZM260.682 50.7738H251.867C250.983 50.7118 250.273 50.0021 250.273 49.1302L250.261 3.68282C250.335 2.84872 251.07 2.20111 251.966 2.20111H260.172C260.944 2.2383 261.579 2.76176 261.753 3.47115V10.4192H261.915C264.393 4.206 267.867 1.24257 273.98 1.24257C277.952 1.24257 281.825 2.67423 284.315 6.59648C286.631 10.2321 286.631 16.346 286.631 20.7414V49.3419C286.531 50.1388 285.797 50.7738 284.925 50.7738H276.047C275.238 50.7118 274.566 50.1139 274.478 49.3419V24.6634C274.478 19.6953 275.051 12.4235 268.938 12.4235C266.784 12.4235 264.804 13.868 263.82 16.0594C262.575 18.8363 262.413 21.6004 262.413 24.6636V49.1302C262.401 50.0393 261.629 50.7738 260.682 50.7738ZM142.731 29.0713C142.731 32.5202 142.818 35.3966 141.074 38.4593C139.668 40.9499 137.426 42.4811 134.948 42.4811C131.549 42.4811 129.557 39.8915 129.557 36.0688C129.557 28.5233 136.318 27.1537 142.731 27.1537V29.0713ZM151.658 50.6494C151.073 51.1723 150.226 51.2098 149.566 50.8611C146.628 48.4205 146.092 47.2875 144.486 44.9591C139.63 49.9148 136.181 51.3965 129.893 51.3965C122.435 51.3965 116.645 46.8018 116.645 37.6006C116.645 30.416 120.53 25.5226 126.083 23.1319C130.889 21.0151 137.601 20.6416 142.731 20.0563V18.911C142.731 16.8066 142.892 14.3163 141.647 12.4984C140.577 10.8674 138.509 10.1949 136.679 10.1949C133.305 10.1949 130.304 11.9255 129.57 15.5116C129.42 16.3086 128.835 17.0929 128.026 17.1304L119.446 16.209C118.725 16.0471 117.915 15.4619 118.127 14.3537C120.094 3.94455 129.507 0.806641 137.925 0.806641C142.233 0.806641 147.861 1.95225 151.26 5.21459C155.568 9.23638 155.157 14.6026 155.157 20.4425V34.2384C155.157 38.3849 156.876 40.2025 158.494 42.4439C159.055 43.2408 159.179 44.1997 158.457 44.7972C156.651 46.3038 153.439 49.1053 151.671 50.6743L151.659 50.6494M26.6715 29.0713C26.6715 32.5202 26.7588 35.3966 25.0153 38.4593C23.6086 40.9499 21.3797 42.4811 18.8894 42.4811C15.4903 42.4811 13.5103 39.8915 13.5103 36.0688C13.5103 28.5233 20.2716 27.1537 26.6715 27.1537V29.0713ZM35.599 50.6494C35.014 51.1723 34.1673 51.2098 33.5074 50.8611C30.5689 48.4205 30.0457 47.2875 28.4273 44.9591C23.5711 49.9148 20.1348 51.3965 13.8341 51.3965C6.38836 51.3965 0.585938 46.8018 0.585938 37.6006C0.585938 30.416 4.4833 25.5226 10.024 23.1319C14.8304 21.0151 21.5416 20.6416 26.6715 20.0563V18.911C26.6715 16.8066 26.8334 14.3163 25.6006 12.4984C24.5173 10.8674 22.4506 10.1949 20.6325 10.1949C17.2584 10.1949 14.2452 11.9255 13.5103 15.5116C13.361 16.3086 12.7757 17.0929 11.9788 17.1304L3.38746 16.209C2.6652 16.0471 1.86856 15.4619 2.06765 14.3537C4.04737 3.94455 13.4482 0.806641 21.8654 0.806641C26.1732 0.806641 31.8015 1.95225 35.2008 5.21459C39.5086 9.23638 39.0979 14.6026 39.0979 20.4425V34.2384C39.0979 38.3849 40.8162 40.2025 42.4349 42.4439C43.0078 43.2408 43.1323 44.1997 42.41 44.7972C40.6045 46.3038 37.3922 49.1053 35.6242 50.6743L35.599 50.6494Z" fill="#606060"/>
</svg>
