<svg width="374" height="84" viewBox="0 0 374 84" fill="none" xmlns="http://www.w3.org/2000/svg">
<path d="M34.8712 4.97266H78.8485L46.5164 53.4774H2.53906L34.8712 4.97266Z" fill="#96EF76"/>
<path d="M36.8003 57.9715L24.2773 76.7586H70.3407L102.673 28.2539H68.6752L48.8661 57.9715H36.8003Z" fill="#96EF76"/>
<path d="M132.647 57.9209V25.6225H153.653V30.5272H138.498V39.2957H152.565V44.2004H138.498V53.0162H153.779V57.9209H132.647ZM159.37 57.9209V33.6971H164.827V37.8132H165.111C165.615 36.4254 166.451 35.3425 167.618 34.5645C168.785 33.7759 170.178 33.3817 171.797 33.3817C173.438 33.3817 174.82 33.7812 175.945 34.5802C177.081 35.3688 177.88 36.4464 178.342 37.8132H178.595C179.131 36.4675 180.035 35.3951 181.307 34.596C182.59 33.7864 184.109 33.3817 185.865 33.3817C188.094 33.3817 189.913 34.0861 191.322 35.4949C192.73 36.9038 193.435 38.9592 193.435 41.6613V57.9209H187.71V42.5445C187.71 41.041 187.311 39.9423 186.511 39.2484C185.712 38.5439 184.735 38.1917 183.578 38.1917C182.201 38.1917 181.123 38.6228 180.345 39.4849C179.578 40.3366 179.194 41.4458 179.194 42.8126V57.9209H173.595V42.3079C173.595 41.0567 173.217 40.0579 172.46 39.3115C171.713 38.565 170.736 38.1917 169.526 38.1917C168.706 38.1917 167.96 38.402 167.287 38.8226C166.614 39.2326 166.078 39.8161 165.678 40.5731C165.279 41.3196 165.079 42.1922 165.079 43.1911V57.9209H159.37ZM206.197 58.4098C204.662 58.4098 203.28 58.1364 202.05 57.5897C200.83 57.0325 199.863 56.2124 199.148 55.1295C198.443 54.0466 198.091 52.7113 198.091 51.1237C198.091 49.7569 198.343 48.6267 198.848 47.733C199.353 46.8393 200.041 46.1244 200.914 45.5882C201.787 45.052 202.77 44.6472 203.863 44.3739C204.967 44.09 206.108 43.885 207.285 43.7588C208.705 43.6116 209.856 43.4802 210.739 43.3645C211.622 43.2384 212.264 43.0491 212.663 42.7968C213.073 42.5339 213.278 42.1292 213.278 41.5824V41.4878C213.278 40.2998 212.926 39.3798 212.222 38.7279C211.517 38.0761 210.503 37.7502 209.178 37.7502C207.78 37.7502 206.67 38.0551 205.85 38.6649C205.041 39.2747 204.494 39.9949 204.21 40.8254L198.88 40.0684C199.3 38.5965 199.994 37.3664 200.961 36.3781C201.929 35.3793 203.111 34.6328 204.51 34.1387C205.908 33.634 207.454 33.3817 209.146 33.3817C210.313 33.3817 211.475 33.5183 212.632 33.7917C213.788 34.0651 214.845 34.5172 215.802 35.148C216.758 35.7683 217.526 36.6147 218.104 37.6871C218.693 38.7595 218.987 40.1 218.987 41.7086V57.9209H213.499V54.5933H213.31C212.963 55.2662 212.474 55.897 211.843 56.4858C211.223 57.064 210.44 57.5319 209.493 57.8894C208.558 58.2363 207.459 58.4098 206.197 58.4098ZM207.68 54.2148C208.826 54.2148 209.819 53.9887 210.66 53.5366C211.502 53.074 212.148 52.4642 212.6 51.7072C213.063 50.9502 213.294 50.1249 213.294 49.2312V46.3767C213.115 46.5239 212.81 46.6606 212.379 46.7868C211.959 46.9129 211.486 47.0233 210.96 47.118C210.434 47.2126 209.914 47.2967 209.399 47.3703C208.884 47.4439 208.437 47.507 208.058 47.5595C207.207 47.6752 206.444 47.8644 205.771 48.1273C205.099 48.3901 204.568 48.7581 204.179 49.2312C203.79 49.6938 203.595 50.2931 203.595 51.0291C203.595 52.0805 203.979 52.8743 204.746 53.4105C205.514 53.9467 206.492 54.2148 207.68 54.2148ZM224.728 57.9209V33.6971H230.437V57.9209H224.728ZM227.598 30.2591C226.694 30.2591 225.916 29.9594 225.264 29.3601C224.612 28.7503 224.286 28.0196 224.286 27.168C224.286 26.3059 224.612 25.5752 225.264 24.9759C225.916 24.3661 226.694 24.0612 227.598 24.0612C228.513 24.0612 229.291 24.3661 229.932 24.9759C230.584 25.5752 230.91 26.3059 230.91 27.168C230.91 28.0196 230.584 28.7503 229.932 29.3601C229.291 29.9594 228.513 30.2591 227.598 30.2591ZM242.017 25.6225V57.9209H236.308V25.6225H242.017ZM269.777 35.9365C269.514 35.0849 269.151 34.3227 268.689 33.6498C268.237 32.9664 267.69 32.3829 267.049 31.8992C266.418 31.4156 265.692 31.0529 264.872 30.811C264.052 30.5587 263.158 30.4325 262.191 30.4325C260.456 30.4325 258.911 30.8689 257.555 31.7415C256.198 32.6142 255.131 33.8968 254.353 35.5896C253.586 37.2718 253.202 39.322 253.202 41.7401C253.202 44.1793 253.586 46.2453 254.353 47.938C255.121 49.6308 256.188 50.9187 257.555 51.8019C258.921 52.6745 260.509 53.1108 262.317 53.1108C263.958 53.1108 265.377 52.7954 266.575 52.1646C267.785 51.5338 268.715 50.6401 269.367 49.4836C270.019 48.3165 270.345 46.9497 270.345 45.3832L271.669 45.5882H262.901V41.0147H276.006V44.8943C276.006 47.6594 275.418 50.0513 274.24 52.07C273.062 54.0886 271.443 55.6447 269.383 56.7381C267.322 57.821 264.956 58.3625 262.286 58.3625C259.31 58.3625 256.698 57.6949 254.448 56.3596C252.208 55.0138 250.458 53.1056 249.196 50.6348C247.945 48.1536 247.319 45.2097 247.319 41.8032C247.319 39.1958 247.687 36.867 248.423 34.8168C249.17 32.7666 250.211 31.0266 251.546 29.5967C252.881 28.1563 254.448 27.0629 256.246 26.3164C258.044 25.5594 259.999 25.1809 262.112 25.1809C263.9 25.1809 265.566 25.4437 267.112 25.9694C268.657 26.4846 270.029 27.2206 271.228 28.1773C272.437 29.1341 273.43 30.2696 274.208 31.5838C274.987 32.898 275.496 34.3489 275.738 35.9365H269.777ZM282.93 57.9209V33.6971H288.639V57.9209H282.93ZM285.8 30.2591C284.896 30.2591 284.118 29.9594 283.466 29.3601C282.814 28.7503 282.488 28.0196 282.488 27.168C282.488 26.3059 282.814 25.5752 283.466 24.9759C284.118 24.3661 284.896 24.0612 285.8 24.0612C286.715 24.0612 287.493 24.3661 288.134 24.9759C288.786 25.5752 289.112 26.3059 289.112 27.168C289.112 28.0196 288.786 28.7503 288.134 29.3601C287.493 29.9594 286.715 30.2591 285.8 30.2591ZM305.044 67.5095C302.994 67.5095 301.233 67.2309 299.761 66.6736C298.289 66.1269 297.106 65.391 296.213 64.4657C295.319 63.5405 294.699 62.5154 294.352 61.3905L299.493 60.1446C299.724 60.6177 300.061 61.0856 300.502 61.5482C300.944 62.0213 301.538 62.4103 302.284 62.7152C303.041 63.0306 303.993 63.1883 305.139 63.1883C306.758 63.1883 308.098 62.794 309.16 62.0055C310.222 61.2275 310.753 59.9448 310.753 58.1575V53.5682H310.469C310.175 54.157 309.744 54.7615 309.176 55.3818C308.619 56.0021 307.878 56.5226 306.952 56.9431C306.038 57.3637 304.886 57.5739 303.499 57.5739C301.638 57.5739 299.95 57.1376 298.436 56.265C296.933 55.3818 295.734 54.0676 294.841 52.3223C293.957 50.5665 293.516 48.3691 293.516 45.7301C293.516 43.0701 293.957 40.8254 294.841 38.996C295.734 37.1561 296.938 35.763 298.452 34.8168C299.966 33.86 301.653 33.3817 303.514 33.3817C304.934 33.3817 306.101 33.6235 307.016 34.1071C307.941 34.5802 308.677 35.1532 309.223 35.8261C309.77 36.4885 310.185 37.1141 310.469 37.7028H310.785V33.6971H316.415V58.3152C316.415 60.3864 315.921 62.1001 314.932 63.4564C313.944 64.8127 312.593 65.8273 310.879 66.5002C309.166 67.1731 307.221 67.5095 305.044 67.5095ZM305.091 53.0951C306.301 53.0951 307.331 52.8007 308.183 52.2119C309.034 51.6231 309.681 50.7768 310.122 49.6728C310.564 48.5689 310.785 47.2441 310.785 45.6986C310.785 44.1741 310.564 42.8388 310.122 41.6928C309.691 40.5468 309.05 39.6584 308.198 39.0276C307.357 38.3862 306.322 38.0656 305.091 38.0656C303.819 38.0656 302.757 38.3968 301.906 39.0591C301.054 39.7215 300.413 40.6309 299.982 41.7875C299.551 42.9335 299.335 44.2372 299.335 45.6986C299.335 47.181 299.551 48.4795 299.982 49.594C300.423 50.6979 301.07 51.56 301.922 52.1804C302.784 52.7902 303.84 53.0951 305.091 53.0951ZM332.801 67.5095C330.75 67.5095 328.989 67.2309 327.517 66.6736C326.046 66.1269 324.863 65.391 323.969 64.4657C323.075 63.5405 322.455 62.5154 322.108 61.3905L327.249 60.1446C327.481 60.6177 327.817 61.0856 328.259 61.5482C328.7 62.0213 329.294 62.4103 330.041 62.7152C330.798 63.0306 331.749 63.1883 332.895 63.1883C334.514 63.1883 335.855 62.794 336.917 62.0055C337.979 61.2275 338.51 59.9448 338.51 58.1575V53.5682H338.226C337.931 54.157 337.5 54.7615 336.933 55.3818C336.375 56.0021 335.634 56.5226 334.709 56.9431C333.794 57.3637 332.643 57.5739 331.255 57.5739C329.394 57.5739 327.707 57.1376 326.193 56.265C324.689 55.3818 323.491 54.0676 322.597 52.3223C321.714 50.5665 321.272 48.3691 321.272 45.7301C321.272 43.0701 321.714 40.8254 322.597 38.996C323.491 37.1561 324.695 35.763 326.208 34.8168C327.722 33.86 329.41 33.3817 331.271 33.3817C332.69 33.3817 333.857 33.6235 334.772 34.1071C335.697 34.5802 336.433 35.1532 336.98 35.8261C337.527 36.4885 337.942 37.1141 338.226 37.7028H338.541V33.6971H344.171V58.3152C344.171 60.3864 343.677 62.1001 342.689 63.4564C341.701 64.8127 340.35 65.8273 338.636 66.5002C336.922 67.1731 334.977 67.5095 332.801 67.5095ZM332.848 53.0951C334.057 53.0951 335.087 52.8007 335.939 52.2119C336.791 51.6231 337.437 50.7768 337.879 49.6728C338.32 48.5689 338.541 47.2441 338.541 45.6986C338.541 44.1741 338.32 42.8388 337.879 41.6928C337.448 40.5468 336.806 39.6584 335.955 39.0276C335.114 38.3862 334.078 38.0656 332.848 38.0656C331.576 38.0656 330.514 38.3968 329.662 39.0591C328.811 39.7215 328.169 40.6309 327.738 41.7875C327.307 42.9335 327.092 44.2372 327.092 45.6986C327.092 47.181 327.307 48.4795 327.738 49.594C328.18 50.6979 328.826 51.56 329.678 52.1804C330.54 52.7902 331.597 53.0951 332.848 53.0951ZM356.993 58.4098C355.458 58.4098 354.075 58.1364 352.845 57.5897C351.626 57.0325 350.658 56.2124 349.943 55.1295C349.239 54.0466 348.887 52.7113 348.887 51.1237C348.887 49.7569 349.139 48.6267 349.644 47.733C350.148 46.8393 350.837 46.1244 351.71 45.5882C352.582 45.052 353.565 44.6472 354.659 44.3739C355.763 44.09 356.904 43.885 358.081 43.7588C359.5 43.6116 360.652 43.4802 361.535 43.3645C362.418 43.2384 363.059 43.0491 363.459 42.7968C363.869 42.5339 364.074 42.1292 364.074 41.5824V41.4878C364.074 40.2998 363.722 39.3798 363.017 38.7279C362.313 38.0761 361.298 37.7502 359.974 37.7502C358.575 37.7502 357.466 38.0551 356.646 38.6649C355.836 39.2747 355.29 39.9949 355.006 40.8254L349.675 40.0684C350.096 38.5965 350.79 37.3664 351.757 36.3781C352.724 35.3793 353.907 34.6328 355.305 34.1387C356.704 33.634 358.249 33.3817 359.942 33.3817C361.109 33.3817 362.271 33.5183 363.427 33.7917C364.584 34.0651 365.641 34.5172 366.597 35.148C367.554 35.7683 368.322 36.6147 368.9 37.6871C369.489 38.7595 369.783 40.1 369.783 41.7086V57.9209H364.295V54.5933H364.106C363.759 55.2662 363.27 55.897 362.639 56.4858C362.019 57.064 361.235 57.5319 360.289 57.8894C359.353 58.2363 358.255 58.4098 356.993 58.4098ZM358.475 54.2148C359.621 54.2148 360.615 53.9887 361.456 53.5366C362.297 53.074 362.944 52.4642 363.396 51.7072C363.858 50.9502 364.09 50.1249 364.09 49.2312V46.3767C363.911 46.5239 363.606 46.6606 363.175 46.7868C362.754 46.9129 362.281 47.0233 361.756 47.118C361.23 47.2126 360.71 47.2967 360.194 47.3703C359.679 47.4439 359.232 47.507 358.854 47.5595C358.002 47.6752 357.24 47.8644 356.567 48.1273C355.894 48.3901 355.363 48.7581 354.974 49.2312C354.585 49.6938 354.391 50.2931 354.391 51.0291C354.391 52.0805 354.775 52.8743 355.542 53.4105C356.31 53.9467 357.287 54.2148 358.475 54.2148Z" fill="white"/>
</svg>
