<svg width="287" height="56" viewBox="0 0 287 56" fill="none" xmlns="http://www.w3.org/2000/svg">
<path d="M19.0038 54.7378H8.2253V27.8685H0.882812V19.1204H8.22501V12.8954C8.22501 5.51892 11.4725 0.228516 22.2218 0.228516C24.4953 0.228516 28.0645 0.68676 28.0645 0.68676V8.80986H24.3156C20.4958 8.80986 19.0043 9.97178 19.0043 13.1841V19.1204H27.9215L27.1274 27.8685H19.004L19.0038 54.7378ZM43.7352 18.4213C43.5782 18.4213 43.4165 18.427 43.2567 18.431C33.2622 18.431 28.6895 25.9488 28.6895 36.6206C28.6895 50.0641 34.621 55.4446 43.3347 55.4446C48.3202 55.4446 51.5957 53.3462 53.5866 49.4303V54.7415H63.8384V19.1241H53.5866V24.6015C51.961 21.0775 48.594 18.463 43.7352 18.4213ZM46.3419 26.8376C50.5396 26.8376 53.0591 29.7655 53.0591 34.7458L53.0689 39.8326C53.0689 43.1893 50.9879 47.1164 46.3419 47.1164C39.1994 47.1164 39.3902 39.4041 39.3902 36.8354C39.3902 28.1948 43.1957 26.8376 46.3419 26.8376ZM67.9787 36.9347C67.9787 32.6065 67.7716 18.4444 86.2226 18.4444C93.6292 18.4444 96.7219 20.7994 96.7219 20.7994L94.2362 28.5092C94.2362 28.5092 91.1474 26.8084 87.1228 26.8084C81.968 26.8084 78.6787 29.7967 78.6787 35.0545L78.6845 38.8246C78.6845 43.8767 81.8581 47.2492 87.1334 47.2492C90.7999 47.2492 94.1792 45.5323 94.1792 45.5323L96.6587 53.081C96.6587 53.081 93.8308 55.4509 86.2744 55.4509C68.7061 55.4509 67.979 42.7448 67.979 36.9347H67.9787ZM156.832 18.431C166.827 18.431 171.472 25.9488 171.472 36.6206C171.472 50.0641 165.54 55.4446 156.826 55.4446C151.841 55.4446 148.155 53.3465 146.164 49.4303V54.7415L136.042 54.7375V1.31148L146.789 0.374113V24.119C148.341 19.9648 153.438 18.431 156.832 18.431ZM153.819 26.8376C149.621 26.8376 146.789 29.7655 146.789 34.7458L146.779 39.8326C146.773 43.1893 148.741 47.1164 153.819 47.1164C160.962 47.1164 160.771 39.4041 160.771 36.8354C160.771 28.1948 156.966 26.8376 153.819 26.8376ZM115.37 18.4604C104.034 18.4604 98.0497 24.641 98.0497 35.6246V37.6652C98.0497 51.9208 106.454 55.5911 116.474 55.5911C126.213 55.5911 130.621 52.8671 130.621 52.8671L128.61 45.613C128.61 45.613 123.424 47.8192 117.762 47.8192C111.893 47.8192 109.368 46.3232 108.721 40.6824H131.48V34.8628C131.48 22.9485 124.763 18.4602 115.37 18.4602L115.37 18.4604ZM115.643 25.7243C119.567 25.7243 122.11 28.1305 121.97 33.7109H108.741C108.97 27.8376 111.712 25.7243 115.643 25.7243ZM192.902 18.4115C181.261 18.4115 175.133 24.9717 175.133 36.7279C175.133 52.8579 185.697 55.4544 192.922 55.4544C203.499 55.4544 210.535 49.7601 210.535 36.8743C210.535 23.4625 202.623 18.4115 192.902 18.4115ZM192.756 26.8667C197.875 26.8667 199.903 30.6977 199.903 35.0585V38.8077C199.903 44.0904 197.065 47.1459 192.737 47.1459C188.688 47.1459 185.843 44.2877 185.843 38.8077V35.0585C185.843 29.214 189.229 26.8667 192.756 26.8667ZM231.947 18.4115C220.306 18.4115 214.177 24.9717 214.177 36.7279C214.177 52.8579 224.742 55.4544 231.967 55.4544C242.543 55.4544 249.58 49.7601 249.58 36.8743C249.58 23.4625 241.668 18.4115 231.947 18.4115ZM231.801 26.8667C236.919 26.8667 238.947 30.6977 238.947 35.0585V38.8077C238.947 44.0904 236.109 47.1459 231.781 47.1459C227.733 47.1459 224.888 44.2877 224.888 38.8077V35.0585C224.888 29.214 228.273 26.8667 231.801 26.8667ZM253.642 54.7378V1.31148L264.421 0.374399V36.1841L275.115 19.1206H286.498L275.342 36.7934L286.928 54.7378H275.512L264.421 37.3137V54.7378H253.642Z" fill="#606060"/>
</svg>
