<svg width="287" height="95" viewBox="0 0 287 95" fill="none" xmlns="http://www.w3.org/2000/svg">
<path d="M122.59 50.3829C122.59 63.9299 111.992 73.9124 98.9865 73.9124C85.9806 73.9124 75.3828 63.9299 75.3828 50.3829C75.3828 36.7405 85.9806 26.8535 98.9865 26.8535C111.992 26.8535 122.59 36.7405 122.59 50.3829ZM112.258 50.3829C112.258 41.9174 106.115 36.1253 98.9865 36.1253C91.8577 36.1253 85.7154 41.9174 85.7154 50.3829C85.7154 58.7636 91.8577 64.6406 98.9865 64.6406C106.115 64.6406 112.258 58.753 112.258 50.3829Z" fill="#606060"/>
<path d="M173.504 50.3829C173.504 63.9299 162.906 73.9124 149.901 73.9124C136.895 73.9124 126.297 63.9299 126.297 50.3829C126.297 36.7512 136.895 26.8535 149.901 26.8535C162.906 26.8535 173.504 36.7405 173.504 50.3829ZM163.172 50.3829C163.172 41.9174 157.029 36.1253 149.901 36.1253C142.772 36.1253 136.629 41.9174 136.629 50.3829C136.629 58.7636 142.772 64.6406 149.901 64.6406C157.029 64.6406 163.172 58.753 163.172 50.3829Z" fill="#606060"/>
<path d="M222.302 28.275V70.5177C222.302 87.8943 212.055 94.9913 199.94 94.9913C188.536 94.9913 181.672 87.3638 179.084 81.1261L188.08 77.3813C189.681 81.211 193.607 85.7301 199.929 85.7301C207.684 85.7301 212.489 80.9458 212.489 71.9392V68.5551H212.129C209.816 71.4088 205.361 73.9018 199.738 73.9018C187.973 73.9018 177.195 63.6541 177.195 50.4678C177.195 37.1861 187.973 26.8535 199.738 26.8535C205.35 26.8535 209.806 29.3465 212.129 32.1153H212.489V28.2856H222.302V28.275ZM213.221 50.4678C213.221 42.1827 207.694 36.1253 200.661 36.1253C193.532 36.1253 187.56 42.1827 187.56 50.4678C187.56 58.6681 193.532 64.6406 200.661 64.6406C207.694 64.6406 213.221 58.6681 213.221 50.4678Z" fill="#606060"/>
<path d="M238.484 3.51367V72.4683H228.406V3.51367H238.484Z" fill="#606060"/>
<path d="M277.754 58.124L285.774 63.4707C283.185 67.3003 276.948 73.8987 266.169 73.8987C252.803 73.8987 242.82 63.5661 242.82 50.3693C242.82 36.3768 252.888 26.8398 265.013 26.8398C277.223 26.8398 283.196 36.5571 285.148 41.8083L286.219 44.4816L254.765 57.5087C257.173 62.2295 260.918 64.6376 266.169 64.6376C271.431 64.6376 275.08 62.0491 277.754 58.124ZM253.068 49.6585L274.094 40.9278C272.938 37.9893 269.458 35.9419 265.363 35.9419C260.112 35.9419 252.803 40.5777 253.068 49.6585Z" fill="#606060"/>
<path d="M37.2309 44.2589V34.2764H70.8702C71.199 36.0162 71.3688 38.0742 71.3688 40.302C71.3688 47.7915 69.3213 57.0527 62.7229 63.6511C56.3048 70.3344 48.1045 73.8988 37.2415 73.8988C17.1068 73.8988 0.175781 57.4982 0.175781 37.3635C0.175781 17.2287 17.1068 0.828125 37.2415 0.828125C48.3804 0.828125 56.3154 5.19879 62.2774 10.8955L55.2334 17.9395C50.9582 13.9295 45.166 10.8106 37.2309 10.8106C22.5277 10.8106 11.0282 22.6602 11.0282 37.3635C11.0282 52.0667 22.5277 63.9163 37.2309 63.9163C46.7679 63.9163 52.1994 60.0867 55.6789 56.6071C58.5008 53.7853 60.3572 49.7541 61.0892 44.2483L37.2309 44.2589Z" fill="#606060"/>
</svg>
