<svg width="131" height="131" viewBox="0 0 131 131" fill="none" xmlns="http://www.w3.org/2000/svg">
<circle cx="65.832" cy="65.8496" r="64.875" fill="#008EFF"/>
<path d="M52.857 47.1076V38.4576C52.857 36.8651 54.1479 35.5742 55.7403 35.5742H90.3403C91.9328 35.5742 93.2236 36.8651 93.2236 38.4576V78.8242C93.2236 80.4167 91.9328 81.7075 90.3403 81.7075H81.6903V90.3549C81.6903 91.9489 80.3931 93.2409 78.7874 93.2409H44.2268C42.6234 93.2409 41.3242 91.9589 41.3242 90.3549L41.3317 49.9934C41.332 48.3996 42.6293 47.1076 44.2347 47.1076H52.857ZM47.0979 52.8742L47.0914 87.4742H75.9236V52.8742H47.0979ZM58.6236 47.1076H81.6903V75.9409H87.457V41.3409H58.6236V47.1076ZM52.8576 61.5242H70.1575V67.2909H52.8576V61.5242ZM52.8576 73.0575H70.1575V78.8242H52.8576V73.0575Z" fill="white"/>
</svg>
