<svg width="287" height="74" viewBox="0 0 287 74" fill="none" xmlns="http://www.w3.org/2000/svg">
<path d="M63.9984 67.5146L60.6269 58.3501C60.6269 58.3501 55.1483 64.4603 46.9326 64.4603C39.6629 64.4603 34.5015 58.1394 34.5015 48.0261C34.5015 35.0687 41.0322 30.4335 47.4593 30.4335C56.7291 30.4335 59.6785 36.438 62.2073 44.1287L65.5789 54.6634C68.9492 64.8812 75.2701 73.0982 93.4946 73.0982C106.559 73.0982 115.407 69.0954 115.407 58.5612C115.407 50.0282 110.56 45.6034 101.5 43.4963L94.7586 42.0216C90.1239 40.9682 88.7545 39.0718 88.7545 35.9113C88.7545 32.3296 91.5982 30.2225 96.2341 30.2225C101.291 30.2225 104.029 32.1189 104.451 36.6487L114.985 35.3843C114.143 25.9033 107.611 22.0055 96.8661 22.0055C87.3856 22.0055 78.1149 25.5873 78.1149 37.07C78.1149 44.2336 81.5914 48.7638 90.3342 50.8705L97.4985 52.5555C102.871 53.8199 104.661 56.0319 104.661 59.0874C104.661 62.9844 100.869 64.5648 93.7057 64.5648C83.0657 64.5648 78.642 58.9817 76.1132 51.291L72.6367 40.7571C68.213 27.062 61.154 22.0055 47.1428 22.0055C31.6574 22.0055 23.4401 31.8025 23.4401 48.447C23.4401 64.4599 31.6574 73.0978 46.4063 73.0978C58.3087 73.0978 63.9984 67.5146 63.9984 67.5146ZM18.9164 62.5631C17.863 62.8795 16.8092 63.0901 15.4399 63.0901C12.9115 63.0901 11.1204 61.9319 11.1204 58.8759V1.46H0.0585938V61.5097C0.0585938 69.4106 5.53721 72.6776 11.963 72.6776C14.0701 72.6776 16.0719 72.3608 18.6003 71.7296L18.9164 62.5631ZM152.173 60.8777C149.434 62.7749 147.116 63.7234 143.956 63.7234C139.952 63.7234 137.74 61.6163 137.74 56.4541V31.8009H152.279V23.163H137.845V11.468L126.679 12.8378V23.1626H119.62V31.8005H126.679V58.7702C126.679 68.4642 132.262 73.0974 141.322 73.0974C146.274 73.0974 150.698 72.1506 154.175 70.1492L152.173 60.8777ZM161.781 64.6698C161.781 68.9901 165.153 72.4662 169.472 72.4662C174.002 72.4662 177.373 68.9901 177.373 64.6698C177.373 60.2453 174.002 56.8754 169.472 56.8754C165.153 56.8754 161.781 60.2453 161.781 64.6698ZM188.825 31.8009V71.8341H199.886V31.8009H212.318V23.163H199.886V18.7377C199.886 12.1012 202.731 9.99414 207.366 9.99414C210.632 9.99414 212.845 10.7307 215.373 12.1012L217.164 2.82935C214.214 1.46 210.738 0.722656 206.524 0.722656C197.252 0.722656 188.825 5.14712 188.825 18.316V23.163H181.766V31.8009H188.825ZM256.395 32.7501C255.131 24.8488 249.969 22.0031 243.226 22.0031C236.484 22.0031 230.69 25.0586 228.161 32.5382L226.792 23.163H217.837V71.8341H228.899V44.3385C228.899 34.9613 233.745 31.3795 238.907 31.3795C244.28 31.3795 246.492 34.9613 246.492 40.7555V71.8337H257.448V44.2328C257.448 34.9609 262.4 31.3791 267.563 31.3791C272.83 31.3791 275.042 34.9609 275.042 40.7551V71.8333H286.104V36.859C286.104 26.4292 279.993 22.0031 271.881 22.0031C265.035 22.0031 258.924 25.0586 256.395 32.7501Z" fill="#606060"/>
</svg>
