<svg width="287" height="78" viewBox="0 0 287 78" fill="none" xmlns="http://www.w3.org/2000/svg">
<path d="M39.8008 72.5802C35.4978 73.3359 31.1191 73.5624 26.5896 74.1658L12.774 33.7016V75.9025C8.47102 76.3553 4.54545 76.9592 0.46875 77.5631V0.257812H11.9441L27.6464 44.1202V0.257812H39.8008V72.5802ZM63.5813 28.5679C68.2622 28.5679 75.434 28.3413 79.737 28.3413V40.42C74.3767 40.42 68.1111 40.42 63.5813 40.6466V58.6143C70.678 58.1615 77.7744 57.557 84.9459 57.3305V68.9558L51.5021 71.5986V0.257812H84.9459V12.3368H63.5813V28.5679ZM129.864 12.3371H117.333V67.9002C113.256 67.9002 109.179 67.9002 105.254 68.0507V12.3371H92.7224V0.257812H129.865L129.864 12.3371ZM149.493 27.7377H166.026V39.8164H149.493V67.2208H137.639V0.257812H171.386V12.3368H149.493V27.7377ZM191.014 56.6514C197.884 56.802 204.829 57.3313 211.548 57.7081V69.6363C200.753 68.9564 189.957 68.2778 178.935 68.0507V0.257812H191.014V56.6514ZM221.74 70.4668C225.59 70.6936 229.667 70.9201 233.592 71.3724V0.257812H221.74V70.4668ZM286.514 0.257812L271.188 37.0232L286.514 77.5631C281.984 76.9592 277.454 76.1287 272.924 75.3737L264.243 53.0281L255.411 73.5624C251.032 72.8068 246.804 72.5802 242.426 71.9763L257.978 36.5699L243.935 0.257812H256.92L264.847 20.5656L273.302 0.257812H286.514Z" fill="#606060"/>
</svg>
