<svg width="287" height="86" viewBox="0 0 287 86" fill="none" xmlns="http://www.w3.org/2000/svg">
<path d="M43.6577 0.0136719C19.9674 0.0136719 0.761719 19.2188 0.761719 42.9091C0.761719 66.6004 19.9674 85.8041 43.6577 85.8041C67.3505 85.8041 86.5542 66.6004 86.5542 42.9091C86.5542 19.2204 67.3505 0.0157208 43.6572 0.0157208L43.6577 0.0136719ZM63.3295 61.8812C63.1464 62.1812 62.906 62.4421 62.622 62.649C62.338 62.8559 62.016 63.0048 61.6744 63.0871C61.3327 63.1694 60.9783 63.1835 60.6312 63.1287C60.2841 63.0738 59.9512 62.951 59.6517 62.7674C49.5801 56.6155 36.9013 55.2222 21.9697 58.6337C21.2783 58.7909 20.5528 58.6672 19.9526 58.2897C19.3523 57.9122 18.9265 57.3119 18.7688 56.6206C18.6902 56.2783 18.6799 55.9239 18.7385 55.5776C18.7971 55.2314 18.9234 54.9001 19.1102 54.6027C19.297 54.3053 19.5406 54.0477 19.8271 53.8446C20.1136 53.6415 20.4373 53.4969 20.7798 53.4191C37.12 49.686 51.1363 51.2934 62.4433 58.2034C63.7034 58.9769 64.103 60.6211 63.3295 61.8812ZM68.5799 50.2013C67.6118 51.7749 65.5526 52.2717 63.98 51.3036C52.4497 44.2163 34.8734 42.1638 21.2352 46.3037C19.4664 46.838 17.5983 45.8411 17.0615 44.0755C16.8053 43.2266 16.8963 42.3108 17.3144 41.5289C17.7325 40.747 18.4436 40.1627 19.2918 39.9044C34.8703 35.1775 54.2373 37.4672 67.4786 45.604C69.0511 46.5721 69.548 48.6308 68.5799 50.2013ZM69.0306 38.0388C55.2055 29.8272 32.3957 29.0722 19.196 33.0783C17.0764 33.7212 14.8348 32.5246 14.1925 30.405C13.8836 29.3866 13.9918 28.2873 14.4933 27.3487C14.9949 26.4102 15.8486 25.7092 16.8668 25.4C32.0192 20.8001 57.2083 21.6888 73.1254 31.138C73.5791 31.4064 73.9753 31.7616 74.2915 32.1833C74.6076 32.605 74.8375 33.085 74.9678 33.5957C75.0982 34.1064 75.1266 34.6378 75.0513 35.1595C74.9759 35.6811 74.7985 36.1828 74.529 36.6358C73.402 38.5423 70.9331 39.1708 69.0327 38.0388H69.0306ZM117.467 39.6124C110.061 37.8462 108.744 36.6066 108.744 34.0019C108.744 31.5411 111.059 29.8851 114.507 29.8851C117.846 29.8851 121.156 31.1426 124.628 33.7314C124.731 33.8098 124.864 33.8411 124.992 33.8206C125.057 33.8113 125.118 33.789 125.174 33.755C125.229 33.721 125.277 33.676 125.315 33.6228L128.931 28.5251C129.003 28.424 129.033 28.2995 129.016 28.177C128.999 28.0544 128.935 27.943 128.839 27.8653C124.705 24.5497 120.054 22.9377 114.614 22.9377C106.618 22.9377 101.03 27.7368 101.03 34.6033C101.03 41.9666 105.85 44.5739 114.179 46.5864C121.263 48.2189 122.462 49.5866 122.462 52.031C122.462 54.7407 120.044 56.4259 116.151 56.4259C111.828 56.4259 108.298 54.9661 104.354 51.5546C104.256 51.4714 104.129 51.4293 104.001 51.4368C103.868 51.447 103.75 51.5085 103.668 51.6058L99.611 56.4311C99.4419 56.6359 99.4624 56.933 99.6571 57.1072C104.247 61.2051 109.892 63.3667 115.987 63.3667C124.603 63.3667 130.171 58.6593 130.171 51.3702C130.186 45.2198 126.503 41.8135 117.483 39.619L117.467 39.6124ZM149.666 32.3079C145.932 32.3079 142.869 33.7791 140.339 36.7936V33.4005C140.339 33.2722 140.289 33.149 140.199 33.0578C140.108 32.9667 139.985 32.9151 139.857 32.9144H133.224C132.957 32.9144 132.742 33.1326 132.742 33.4005V71.1014C132.742 71.3678 132.957 71.588 133.224 71.588H139.857C140.124 71.588 140.339 71.3678 140.339 71.1014V59.2022C142.869 62.0349 145.932 63.423 149.666 63.423C156.607 63.423 163.635 58.0804 163.635 47.867C163.645 37.6516 156.617 32.3074 149.672 32.3074L149.666 32.3079ZM155.921 47.867C155.921 53.0657 152.719 56.6974 148.13 56.6974C143.596 56.6974 140.175 52.9018 140.175 47.867C140.175 42.8318 143.596 39.0371 148.13 39.0371C152.643 39.0366 155.921 42.7498 155.921 47.867ZM181.64 32.3079C172.702 32.3079 165.699 39.1903 165.699 47.9782C165.699 56.6718 172.655 63.4794 181.532 63.4794C190.502 63.4794 197.524 56.6206 197.524 47.867C197.524 39.1432 190.548 32.309 181.64 32.309V32.3079ZM181.64 56.7486C176.887 56.7486 173.301 52.9274 173.301 47.8645C173.301 42.7785 176.764 39.0879 181.532 39.0879C186.317 39.0879 189.923 42.9076 189.923 47.9756C189.923 53.0606 186.44 56.7486 181.64 56.7486ZM216.61 32.9144H209.311V25.4532C209.311 25.3897 209.299 25.3268 209.275 25.268C209.251 25.2093 209.215 25.1558 209.171 25.1107C209.126 25.0656 209.073 25.0298 209.014 25.0052C208.956 24.9807 208.893 24.9679 208.829 24.9676H202.196C201.93 24.9676 201.709 25.1858 201.709 25.4532V32.9144H198.523C198.257 32.9144 198.042 33.1326 198.042 33.4005V39.1002C198.042 39.3675 198.257 39.5863 198.523 39.5863H201.709V54.336C201.709 60.2933 204.675 63.3155 210.53 63.3155C212.907 63.3155 214.879 62.8237 216.738 61.7685C216.892 61.6866 216.984 61.5227 216.984 61.3485V55.9188C216.984 55.7549 216.897 55.5961 216.754 55.509C216.684 55.4644 216.604 55.439 216.521 55.4354C216.438 55.4318 216.356 55.4502 216.282 55.4885C215.007 56.1288 213.772 56.4259 212.389 56.4259C210.264 56.4259 209.311 55.4578 209.311 53.2962V39.5888H216.61C216.877 39.5888 217.092 39.3706 217.092 39.1027V33.4036C217.094 33.34 217.083 33.2766 217.06 33.2173C217.037 33.158 217.002 33.104 216.958 33.0586C216.913 33.0131 216.86 32.9772 216.801 32.9529C216.742 32.9287 216.679 32.9166 216.615 32.9175L216.61 32.9144ZM242.037 32.9436V32.0272C242.037 29.3314 243.072 28.1291 245.387 28.1291C246.77 28.1291 247.882 28.4037 249.127 28.8186C249.28 28.8668 249.439 28.8427 249.562 28.751C249.625 28.706 249.675 28.6467 249.71 28.5781C249.745 28.5094 249.763 28.4335 249.762 28.3566V22.7681C249.763 22.6637 249.73 22.5618 249.668 22.4778C249.606 22.3938 249.519 22.3322 249.419 22.3025C248.107 21.9116 246.427 21.5106 243.907 21.5106C237.786 21.5106 234.544 24.9599 234.544 31.4822V32.8857H231.357C231.091 32.8857 230.871 33.104 230.871 33.3713V39.1002C230.871 39.3675 231.091 39.5863 231.357 39.5863H234.544V62.332C234.544 62.6035 234.764 62.8186 235.03 62.8186H241.658C241.93 62.8186 242.145 62.6035 242.145 62.332V39.5878H248.338L257.824 62.332C256.749 64.719 255.688 65.1954 254.244 65.1954C253.076 65.1954 251.842 64.8471 250.587 64.1555C250.468 64.0955 250.33 64.0827 250.202 64.1197C250.074 64.1658 249.967 64.258 249.916 64.3809L247.667 69.3137C247.559 69.5493 247.652 69.8208 247.877 69.9438C250.223 71.2141 252.338 71.7571 254.956 71.7571C259.853 71.7571 262.563 69.4725 264.945 63.336L276.449 33.6075C276.479 33.534 276.49 33.4541 276.481 33.3753C276.472 33.2964 276.444 33.2211 276.398 33.1562C276.355 33.0912 276.296 33.038 276.227 33.0011C276.159 32.9643 276.082 32.9451 276.004 32.9452H269.099C268.889 32.9452 268.704 33.0768 268.638 33.2709L261.564 53.4703L253.819 33.2576C253.784 33.166 253.723 33.0871 253.642 33.0313C253.562 32.9755 253.466 32.9455 253.368 32.9452H242.037V32.9436ZM227.295 32.9144H220.662C220.396 32.9144 220.175 33.1326 220.175 33.4005V62.332C220.175 62.6035 220.396 62.8186 220.662 62.8186H227.295C227.562 62.8186 227.782 62.6035 227.782 62.332V33.4026C227.782 33.3387 227.77 33.2753 227.745 33.2163C227.721 33.1572 227.685 33.1035 227.64 33.0584C227.595 33.0132 227.541 32.9774 227.482 32.953C227.423 32.9287 227.359 32.9163 227.295 32.9165V32.9144ZM224.017 19.7403C221.389 19.7403 219.258 21.8671 219.258 24.4943C219.258 25.1192 219.382 25.738 219.621 26.3153C219.86 26.8926 220.21 27.4172 220.652 27.859C221.094 28.3009 221.619 28.6513 222.196 28.8904C222.773 29.1295 223.392 29.2525 224.017 29.2525C226.645 29.2525 228.771 27.1231 228.771 24.4943C228.771 21.8676 226.64 19.7403 224.017 19.7403ZM282.115 42.2171C279.492 42.2171 277.448 40.1093 277.448 37.5496C277.448 34.99 279.518 32.8581 282.14 32.8581C284.763 32.8581 286.807 34.9654 286.807 37.523C286.807 40.0826 284.737 42.2171 282.115 42.2171ZM282.14 33.3222C279.748 33.3222 277.94 35.2225 277.94 37.5496C277.94 39.8757 279.738 41.7505 282.115 41.7505C284.507 41.7505 286.315 39.8516 286.315 37.523C286.315 35.1969 284.517 33.3222 282.14 33.3222ZM283.175 38.0029L284.496 39.8511H283.38L282.191 38.1556H281.172V39.8511H280.24V34.9521H282.422C283.564 34.9521 284.312 35.5345 284.312 36.5149C284.317 37.3181 283.851 37.8088 283.18 38.0029H283.175ZM282.386 35.7927H281.172V37.3422H282.386C282.991 37.3422 283.354 37.0456 283.354 36.5666C283.354 36.0626 282.991 35.7927 282.386 35.7927Z" fill="#606060"/>
</svg>
