<svg width="70" height="70" viewBox="0 0 70 70" fill="none" xmlns="http://www.w3.org/2000/svg">
<path d="M64.439 16.9024C62.2379 17.8761 59.9035 18.5156 57.5135 18.7998C60.0316 17.2924 61.9158 14.9211 62.8151 12.1276C60.4491 13.5334 57.8592 14.5228 55.1584 15.0529C52.8786 12.6206 49.6922 11.2423 46.3585 11.2461C39.7003 11.2461 34.3001 16.6445 34.3001 23.3056C34.3001 24.2506 34.4085 25.1671 34.6112 26.0513C24.5855 25.5466 15.7037 20.7487 9.75453 13.4521C8.6834 15.2924 8.12046 17.3843 8.12331 19.5136C8.12331 23.6971 10.2528 27.3896 13.4876 29.5514C11.5727 29.4909 9.70004 28.9737 8.02569 28.0426C8.02384 28.0933 8.02384 28.144 8.02384 28.1919C8.02384 34.0361 12.1806 38.9113 17.6987 40.0182C16.6631 40.2985 15.5948 40.44 14.5219 40.4392C13.7427 40.4392 12.9865 40.3674 12.2515 40.2264C13.787 45.0162 18.2375 48.5033 23.5162 48.599C19.2446 51.9514 13.9697 53.7702 8.53964 53.7625C7.5786 53.7633 6.61836 53.7065 5.66406 53.5929C11.1768 57.1368 17.5936 59.0176 24.1471 59.0107C46.3291 59.0107 58.4575 40.6364 58.4575 24.702C58.4575 24.1806 58.4449 23.6575 58.4218 23.1417C60.7824 21.4361 62.82 19.3233 64.439 16.9024Z" fill="white"/>
</svg>
